<svg xmlns="http://www.w3.org/2000/svg" viewBox="0 0 206.36 211.8"><defs><style>.cls-1{fill:#e84722;}.cls-2{fill:#fff;}</style></defs><title>Asset 4</title><g id="Layer_2" data-name="Layer 2"><g id="Layer_1-2" data-name="Layer 1"><path class="cls-1" d="M39.73,1.31l-6.55,4.5a11.09,11.09,0,0,0-4.81,9.13,4.92,4.92,0,0,1-1.43,3.46L22.7,22.63A3.1,3.1,0,0,0,27.07,27l4.24-4.23a11.15,11.15,0,0,0,3.26-7.85,4.88,4.88,0,0,1,2.12-4l6.55-4.51C48.9,3.35,45.9-2.65,39.73,1.31Z"/><path class="cls-1" d="M17.92,31.57a3.22,3.22,0,0,0-4.42.23L9.13,36.15a18.44,18.44,0,0,0-5.42,16.1,22,22,0,0,1,.08,3.54,3.11,3.11,0,0,0,6.09,1.06h0a18,18,0,0,0-.05-5.53A11.65,11.65,0,0,1,13,41.08L18,36A3.08,3.08,0,0,0,17.92,31.57Z"/><path class="cls-1" d="M46.15,30.84C46.73,23.31,52.46,14.06,61,4.76c1.86-3.41-3.22-6.53-5.78-3h0L50.82,7A41,41,0,0,0,40,30.14c-1.05,9.29-10.31,19.4-26.75,29.23-1.19.71-7.47,3.37-10.38,4.58-5,1.4-3,7.4,2.14,5.92C17.38,66.32,44.16,50.73,46.15,30.84Z"/><path class="cls-1" d="M29.3,97.49c1.85-5.47,5.53-17.7,1-24.32-4.59-5.84-17-.82-23.09,3.28a2.7,2.7,0,0,0-.45,4.1h0a2.7,2.7,0,0,0,3.44.41C13.47,78.79,19.3,75.51,23.5,76a2.67,2.67,0,0,1,2.18,1.67c1.81,4.72-1.2,14.14-2.42,18S27.9,101.35,29.3,97.49Z"/><path class="cls-2" d="M58,50.47C62.76,43.68,66.91,37,68.26,28.93c1.15-6.86,12.51-17.34,17.22-21.64a2.8,2.8,0,0,0,.28-3.83l-.09-.11A2.79,2.79,0,0,0,81.75,3c-5.39,4.4-18.16,16.33-19.6,24.93C61,34.7,57.22,40.42,52.82,47.05c-6.65,10-14.93,22.52-15.71,43.21,0,.7-.06,4-.08,6.51a2.81,2.81,0,0,0,3.13,2.81h0a2.8,2.8,0,0,0,2.48-2.9C41.71,76,51.5,59.7,58,50.47Z"/><path class="cls-2" d="M62.64,88.39c2-9.63,5.91-20.34,13.85-27C86.17,53.18,88.39,43,90.17,34.77a57.34,57.34,0,0,1,7.35-17.6c2.49-4.21-3-7-5-3.42-3.14,4.41-7.29,14.78-8.36,19.7-1.75,8-3.56,16.35-11.63,23.17C59.41,67.3,56.6,85.9,55.65,94.27a2.85,2.85,0,0,0,3.16,3.16h0a2.85,2.85,0,0,0,2.48-2.33C61.83,92.17,62.58,88.47,62.64,88.39Z"/><path class="cls-2" d="M80.85,82.28a2,2,0,0,1,3.65.31l0,.07a78.53,78.53,0,0,1-1.62,40.69,2.8,2.8,0,1,0,5.18,2.1c1.5-4.88,4-14.32,4.27-22.58.19-4.91.43-21.42-4.54-27.47A6.15,6.15,0,0,0,81,73.17c-2.72.87-9.32,12.8-10.84,22-1.24,4.14,3.76,5.14,4.73,1.46A118.71,118.71,0,0,1,80.85,82.28Z"/><path class="cls-1" d="M133.28,194.63c-4.7-18.78-9.4-22.11-12.53-23-5.36-1.49-11,3.33-17.88,15.17l-5.45,9.5c-3.52,6,3.48,8,5.29,3.54,2-3.61,4.58-8.3,5.52-9.94,6.25-10.83,10-12.55,10.86-12.3.15,0,3.85,1.26,8.16,18.48a123,123,0,0,1,1.48,13c.17,4.3,6.17,3.3,6.21-1.21A128.48,128.48,0,0,0,133.28,194.63Z"/><path class="cls-1" d="M201,82.64l-.06.08-12,15.09a3.1,3.1,0,0,0,4.86,3.85l12-15.09C207.9,83.35,203.9,79.35,201,82.64Z"/><path class="cls-1" d="M197.87,72.42s-32-.07-40.8,25c-6.81,18.79-6.4,48.54,2.8,67.69l1.69,3.55c2.34,3.71,6.34.71,4.87-2.61-9.52-20.13-9.5-50-3.57-66.43l.07-.18c9-21.07,35.66-20.85,35.66-20.85C202.9,78.35,202.9,72.35,197.87,72.42Z"/><path class="cls-2" d="M122.76,15.32c1.69-3.54-3.25-7.21-5.78-2.85C111.85,18.78,94.54,57,97.87,75.32c3.12,17.2,1.5,40-4.57,58.87-.38,1.09-4.83,12-5.32,13.3-1.91,4.52,4.08,7.53,6,1.78.88-2.32,6.4-16,8.26-24.29,3.86-17.15,4.5-35.65,1.77-50.76C100.93,57.46,116.38,25.25,122.76,15.32Z"/><path class="cls-2" d="M132.4,14.94c-5.7,8.94-17.22,43.43-14.38,61.51,2.22,14.12.74,33.94-3.86,51.72s-11.87,32-20.89,41.06a22.33,22.33,0,0,1-4.07,3c-4.14,2.54-1,8,3.21,5.74l2.84-2.09.18-.15c13.65-12.23,20.95-31.43,24.73-46,4.79-18.55,6.32-39.33,4-54.23-2.58-16.49,9.57-48.18,14.65-58C140.83,12.25,134.09,11.42,132.4,14.94Z"/><path class="cls-1" d="M154,51.88a102.37,102.37,0,0,1-9.92,6,16.4,16.4,0,0,1-3.12,1.23,1.58,1.58,0,0,1-2-1.31v0c-.07-12.52,10.13-27.46,12.8-31.14,3-5.55-2.77-6.6-4.58-4.27-4.07,5.24-14.26,19.33-14.36,36.08a1.46,1.46,0,0,0,0,.29c.54,3.8,2.45,5.43,4,6.13a6.86,6.86,0,0,0,2.92.61c4.73,0,10.78-3.94,17.6-8.38,1.29-.84,6.58-4.07,9.11-5.62,4.44-3.1.44-7.1-2.93-4.93C160.93,47.93,155.3,51,154,51.88Z"/><path class="cls-1" d="M145.38,85.13c-14.79,23.71-15.43,80.38-5.82,112.69a.74.74,0,0,1,0,.14c.13.58.4,1.62.7,2.71,1.53,3.88,6.56,2.34,5.67-2.45-.92-3.82-2.36-9.23-2.36-9.23-7.61-32.89-4.87-81.52,7-100.58C155.88,80,169.34,72.31,176,69.12a2.67,2.67,0,0,0,1-3.93l0-.06a2.66,2.66,0,0,0-3.16-1C168.33,66.3,153.11,73.13,145.38,85.13Z"/><path class="cls-1" d="M185.25,107.42a3.11,3.11,0,0,0-4.36.5L170.3,121.27A17,17,0,0,0,167.43,137l1.85,5.75a18,18,0,0,1-.69,12.95c-2.15,5.4,4.19,6.57,5.69,2.48a24.35,24.35,0,0,0,.9-17.33l-1.85-5.75a10.74,10.74,0,0,1,1.82-10l10.6-13.35A3.1,3.1,0,0,0,185.25,107.42Z"/></g></g></svg>