<svg xmlns="http://www.w3.org/2000/svg" viewBox="0 0 80.73 87.85"><defs><style>.cls-1{fill:#807a84;}</style></defs><title>Asset 1</title><g id="Layer_2" data-name="Layer 2"><g id="Capa_1" data-name="Capa 1"><path class="cls-1" d="M79.81,31.4a69.29,69.29,0,0,0-2.18-11.51,20.52,20.52,0,0,0-19-13.74H47.15a15.58,15.58,0,0,0-2.8-3A15.83,15.83,0,0,0,40.59,1,13.85,13.85,0,0,0,35.12,0a15.4,15.4,0,0,0-4.9.59A4.8,4.8,0,0,0,27.9,2.1a3.92,3.92,0,0,0-.7,2.13c0,.81-.07,1.57-.07,2.28V17c0,3.69-.93,5.81-5.87,5.81H5.08a13.06,13.06,0,0,0-2.54,2.43A17.3,17.3,0,0,0,.78,28.33,11,11,0,0,0,0,32.7c0,1.11.07,2.64.23,4.58a53.12,53.12,0,0,0,.93,6.36,54.47,54.47,0,0,0,1.88,7,32.2,32.2,0,0,0,3.14,6.68,20,20,0,0,0,4.73,5.3,13.11,13.11,0,0,0,6.54,2.65,65.31,65.31,0,0,0,10.81.27c9.81,0,10.17-8.66,10.24-12.75,0-1.13,0-2.33.11-3.54A24.31,24.31,0,0,0,42.17,54a19.51,19.51,0,0,0,4,3.16,9.89,9.89,0,0,0,5.31,1.45c4,0,7.09.88,9.25,2.66S64,65,64,67.17c0,0,.15,6.2,0,8.28a8,8,0,0,1-.71,2.65,5,5,0,0,1-1.53,1.79A4.24,4.24,0,0,1,59,80.7h-9a4.25,4.25,0,0,1-4.25-4.2c0-.76,0-1.43,0-1.71,0-1.67.35-2.78,1-3.35a3.86,3.86,0,0,1,2.51-.86c1.21,0,3.39,0,3.39,0V64.11s-3.43,0-5.89,0A7.94,7.94,0,0,0,39,72.44c.16,3.62.33,7,.35,7.18.71,7.2,7.53,8.23,9.14,8.23H62.2a17.39,17.39,0,0,0,9.19-5.31,27.64,27.64,0,0,0,3.38-4.44,32.22,32.22,0,0,0,3-6.36,48.15,48.15,0,0,0,2.12-8.66,71.4,71.4,0,0,0,.81-11.41A172.58,172.58,0,0,0,79.81,31.4ZM52.59,39.52a6.44,6.44,0,0,1,12,0Z"/><path class="cls-1" d="M23.08,15l.05-13.12-15.78,17,12-.11A3.77,3.77,0,0,0,23.08,15Z"/></g></g></svg>