<svg id="Capa_1" data-name="Capa 1" xmlns="http://www.w3.org/2000/svg" viewBox="0 0 80 88.1"><defs><style>.cls-1{fill:#fff;}</style></defs><title>share</title><g id="_77_Essential_Icons" data-name="77 Essential Icons"><path id="Share" class="cls-1" d="M69.05,58.1a14.93,14.93,0,0,0-11.8,5.8L33,49.8a15.26,15.26,0,0,0,0-11.5l24.3-14.1a15,15,0,1,0-3.2-9.2,15.23,15.23,0,0,0,1.1,5.7L30.85,34.9a15,15,0,1,0,0,18.4l24.3,14.1a15.23,15.23,0,0,0-1.1,5.7,15,15,0,1,0,15-15Zm0-54a11,11,0,1,1-11,11A11,11,0,0,1,69.05,4.1Zm-50,51a11,11,0,1,1,11-11A11,11,0,0,1,19.05,55.1Zm50,29a11,11,0,1,1,11-11A11,11,0,0,1,69.05,84.1Z" transform="translate(-4.05 0)"/></g></svg>